<svg xmlns="http://www.w3.org/2000/svg" width="308" height="308" viewBox="0 0 308 308"><g><g clip-path="url(#clip-6bc59384-4e84-422b-8db1-1a6232bb789b)"><g><path fill="#ffa000" d="M154 154H3.755a13.545 13.545 0 0 0-3.423 9.844c3.038 48.106 28.51 91.77 68.315 118.325a13.448 13.448 0 0 0 10.217 1.96c0 .002 0 .004.003.006z"/></g><g><path fill="#ffa000" d="M78.865 23.865c0 .003 0 .003-.002.005a13.476 13.476 0 0 0-10.215 1.962C28.879 52.367 3.374 96.011.333 144.157A13.545 13.545 0 0 0 3.756 154H154z"/></g><g><path fill="#ffa000" d="M229.134 23.865c-1.116-3.414-3.565-6.274-6.775-7.867-42.96-21.322-93.721-21.339-136.717 0-3.212 1.593-5.658 4.453-6.775 7.867L154 154z"/></g><g><path fill="#ffa000" d="M78.868 284.135c1.116 3.415 3.562 6.275 6.774 7.868 42.958 21.32 93.722 21.339 136.718 0 6.962-3.455 9.523-12.126 5.64-18.858l-66.187-114.633L154 154z"/></g><g><path fill="#ffa000" d="M307.666 144.157c-3.036-48.109-28.51-91.769-68.313-118.324a13.48 13.48 0 0 0-10.217-1.963l-.002-.004L154 154l7.813 4.511h132.341c7.795 0 14.003-6.588 13.512-14.355z"/></g><g><path fill="#f57c00" d="M122.995 154l-68.05 117.867a153.379 153.379 0 0 0 13.703 10.302 13.445 13.445 0 0 0 10.215 1.96c.002.002.002.004.002.007L153.999 154z"/></g><g><path fill="#f57c00" d="M78.865 23.865c0 .003 0 .003-.002.005a13.476 13.476 0 0 0-10.215 1.962c-1.389.926-2.756 1.88-4.112 2.853l65.406 113.286H.505c-.057.729-.125 1.457-.172 2.186A13.545 13.545 0 0 0 3.757 154H154z"/></g><g><path fill="#f57c00" d="M222.36 15.998a154.105 154.105 0 0 0-19.267-7.982 13.515 13.515 0 0 1 1.983 3.818l-66.579 115.317L154 154l75.134-130.136c-1.116-3.414-3.564-6.274-6.774-7.867z"/></g><g><path fill="#f57c00" d="M227.999 273.148l-66.186-114.636L154 154l-5.953 10.31 55.894 96.806c3.885 6.73 1.32 15.401-5.64 18.858-37.98 18.85-80.651 20.397-117.45 7.983 1.25 1.694 2.881 3.099 4.791 4.046 21.356 10.6 44.356 15.974 68.36 15.974 24.004 0 47.002-5.374 68.358-15.974 6.962-3.454 9.524-12.125 5.64-18.855z"/></g><g><path fill="#f57c00" d="M307.666 144.157c-3.036-48.109-28.51-91.769-68.313-118.324a13.48 13.48 0 0 0-10.217-1.963l-.002-.004-.139.24c32.567 27.441 51.986 66.416 54.613 108.022.489 7.764-5.717 14.353-13.514 14.353H158.342l-4.343 7.52 7.813 4.511h132.342c7.794 0 14.003-6.589 13.512-14.355z"/></g><g><path fill="#ffe082" d="M29.323 154c0 7.457-1.739 14.971-.493 22.073 1.278 7.3 5.5 13.77 7.98 20.58 2.523 6.934 3.468 14.595 7.115 20.897 3.682 6.363 9.865 10.997 14.564 16.592 4.714 5.61 8.213 12.5 13.822 17.21 5.595 4.7 12.979 6.959 19.34 10.638L154 154z"/></g><g><path fill="#ffca28" d="M122.995 154l-54.192 93.868c1.088 1.245 2.244 2.423 3.508 3.485 5.595 4.7 12.979 6.958 19.34 10.637L154 154z"/></g><g><path fill="#ffe082" d="M91.65 261.99c6.282 3.629 11.933 8.935 18.875 11.461 6.812 2.48 14.515 2.073 21.818 3.35 7.102 1.246 14.2 4.282 21.657 4.282 7.458 0 14.557-3.036 21.658-4.281 7.301-1.278 15.006-.872 21.819-3.351 3.423-1.248 6.532-3.168 9.559-5.233 5.216-3.555 6.836-10.509 3.68-15.977L154 154.001z"/></g><g><path fill="#ffca28" d="M154 154l-8.557 14.821 46.847 81.14c-7.907 4.867-12.426 9.113-18.872 11.46-6.812 2.48-14.517 2.074-21.82 3.352-7.102 1.243-14.2 4.281-21.657 4.281-7.456 0-14.555-3.038-21.656-4.281-4.89-.856-9.96-.959-14.82-1.678 5.592 3.544 10.797 8.077 17.06 10.356 6.812 2.479 14.517 2.072 21.82 3.353 7.1 1.243 14.198 4.28 21.657 4.28 7.456 0 14.555-3.037 21.656-4.28 7.3-1.28 15.006-.874 21.818-3.353 3.424-1.246 6.533-3.168 9.56-5.231 5.216-3.558 6.838-10.51 3.682-15.977L153.999 154z"/></g><g><path fill="#ffe082" d="M91.65 46.01c-6.36 3.68-13.744 5.939-19.338 10.638C66.7 61.36 63.202 68.25 58.49 73.861c-4.7 5.595-10.885 10.229-14.565 16.59-3.647 6.302-4.591 13.965-7.115 20.897-2.48 6.812-6.702 13.28-7.98 20.58-1.246 7.102.493 14.616.493 22.072H154z"/></g><g><path fill="#ffca28" d="M91.65 46.01c-4.25 2.458-8.957 4.287-13.283 6.63l41.158 71.287c4.63 8.02-1.159 18.045-10.42 18.045H28.55c.273 3.976.773 8.01.773 12.029H154z"/></g><g><path fill="#ffe082" d="M197.477 34.55c-6.813-2.479-14.518-2.072-21.819-3.35-7.101-1.246-14.2-4.282-21.658-4.282-7.456 0-14.555 3.036-21.657 4.281-7.3 1.279-15.006.872-21.818 3.351-6.932 2.524-12.567 7.811-18.87 11.458-.002 0-.002.002-.002.002L154 154l62.349-107.99-.002-.002c-6.303-3.647-11.938-8.934-18.87-11.458z"/></g><g><path fill="#ffca28" d="M216.346 46.008c-6.302-3.647-11.937-8.934-18.87-11.458-1.548-.564-3.146-.97-4.772-1.287l-54.207 93.888L154 154l62.35-107.99z"/></g><g><path fill="#ffe082" d="M269.568 154a9.668 9.668 0 0 0 9.632-8.847c.385-4.488.724-8.932-.028-13.225-1.278-7.3-5.504-13.77-7.983-20.58-2.523-6.934-3.466-14.595-7.113-20.9-3.682-6.36-9.864-10.994-14.564-16.59-4.714-5.61-8.213-12.498-13.824-17.21-5.593-4.7-12.976-6.958-19.34-10.638L154 154h60.749v30.112c-.003 6.156 4.988 11.145 11.145 11.145 7.12 0 11.832-5.47 11.832-11.488v-4.138a7.156 7.156 0 0 1 7.157-7.156 7.156 7.156 0 0 1 7.158 7.156v32.153a8.765 8.765 0 0 0 17.528 0z"/></g><g><path fill="#ffca28" d="M279.171 131.929c-1.278-7.301-5.503-13.77-7.982-20.58-2.524-6.935-3.466-14.595-7.113-20.9-3.682-6.361-9.865-10.995-14.564-16.59-4.714-5.612-8.213-12.499-13.825-17.21-5.592-4.7-12.976-6.958-19.339-10.638l-1.208 2.093c3.739 4.275 6.662 9.381 10.311 13.726 4.7 5.595 10.885 10.229 14.565 16.59 3.647 6.302 4.591 13.965 7.115 20.897 2.48 6.812 6.704 13.28 7.983 20.583l.035.213c1.913 11.47-7.12 21.859-18.747 21.859h-75.457L154 154h91.51v18.505a7.153 7.153 0 0 1 6.53 7.125v32.155a8.763 8.763 0 0 0 8.763 8.763c4.84 0 8.765-3.925 8.765-8.763v-57.785a9.67 9.67 0 0 0 9.632-8.848c.386-4.488.724-8.931-.028-13.225z"/></g><g><path fill="#ef5350" d="M102.711 212.333c0 9.877-8.003 17.883-17.88 17.883-9.876 0-17.88-8.006-17.88-17.883 0-9.874 8.004-17.88 17.88-17.88 9.877 0 17.88 8.006 17.88 17.88z"/></g><g><path fill="#ef5350" d="M117.426 120.23c0 9.877-8.006 17.883-17.882 17.883-9.875 0-17.88-8.006-17.88-17.882 0-9.875 8.005-17.88 17.88-17.88 9.876 0 17.882 8.005 17.882 17.88z"/></g><g><path fill="#ef5350" d="M154.97 59.64c0 9.876-8.006 17.882-17.882 17.882-9.877 0-17.88-8.006-17.88-17.882 0-9.874 8.003-17.88 17.88-17.88 9.876 0 17.882 8.006 17.882 17.88z"/></g><g><g><path fill="#ff6f00" d="M233.516 81.773a8.943 8.943 0 0 1-8.94 8.941 8.941 8.941 0 1 1 0-17.882 8.941 8.941 0 0 1 8.94 8.941z"/></g><g><path fill="#ff6f00" d="M204.742 128.206a8.941 8.941 0 1 1-8.94-8.941 8.941 8.941 0 0 1 8.94 8.941z"/></g><g><path fill="#ff6f00" d="M194.252 54.95a8.94 8.94 0 0 1-8.94 8.94 8.94 8.94 0 0 1-8.94-8.94 8.939 8.939 0 0 1 8.94-8.94 8.939 8.939 0 0 1 8.94 8.94z"/></g><g><path fill="#ff6f00" d="M162.94 104.418a8.94 8.94 0 0 1-8.94 8.94 8.939 8.939 0 0 1-8.94-8.94 8.94 8.94 0 0 1 8.94-8.94 8.94 8.94 0 0 1 8.94 8.94z"/></g><g><path fill="#ff6f00" d="M62.755 131.815a8.939 8.939 0 0 1-8.941 8.94 8.939 8.939 0 0 1-8.94-8.94 8.939 8.939 0 0 1 8.94-8.94 8.94 8.94 0 0 1 8.94 8.94z"/></g><g><path fill="#ff6f00" d="M114.104 174.226a8.941 8.941 0 0 1-8.942 8.94 8.94 8.94 0 0 1-8.94-8.94 8.94 8.94 0 0 1 8.94-8.94c4.937 0 8.942 4.003 8.942 8.94z"/></g><g><path fill="#ff6f00" d="M93.406 75.012a8.937 8.937 0 0 0-11.089-6.072 8.94 8.94 0 0 0 5.017 17.161 8.937 8.937 0 0 0 6.072-11.089z"/></g><g><path fill="#ff6f00" d="M65.974 180.822a8.939 8.939 0 0 1-8.94 8.941 8.94 8.94 0 0 1-8.94-8.941 8.941 8.941 0 1 1 17.88 0z"/></g><g><path fill="#ff6f00" d="M191.898 249.63a8.943 8.943 0 0 1-8.941 8.942 8.941 8.941 0 1 1 0-17.882 8.941 8.941 0 0 1 8.94 8.94z"/></g><g><path fill="#ff6f00" d="M162.94 198.704a8.941 8.941 0 1 1-17.88 0 8.94 8.94 0 0 1 8.94-8.94 8.94 8.94 0 0 1 8.94 8.94z"/></g></g><g><path fill="#ef5350" d="M257.652 121.434c0 9.876-8.006 17.882-17.88 17.882-9.877 0-17.883-8.006-17.883-17.882 0-9.874 8.006-17.88 17.883-17.88 9.874 0 17.88 8.006 17.88 17.88z"/></g><g><path fill="#d32f2f" d="M88.553 194.844a17.802 17.802 0 0 1 2.13 8.468c0 9.875-8.007 17.88-17.88 17.88-1.277 0-2.522-.136-3.723-.39 3.02 5.605 8.939 9.414 15.751 9.414 9.877 0 17.88-8.006 17.88-17.882 0-8.599-6.07-15.777-14.158-17.49z"/></g><g><path fill="#d32f2f" d="M103.266 102.74a17.804 17.804 0 0 1 2.131 8.47c0 9.876-8.006 17.88-17.882 17.88-1.276 0-2.522-.137-3.722-.39 3.02 5.604 8.94 9.413 15.75 9.413 9.877 0 17.883-8.006 17.883-17.882 0-8.599-6.072-15.777-14.16-17.49z"/></g><g><path fill="#d32f2f" d="M140.81 42.15a17.804 17.804 0 0 1 2.131 8.469c0 9.874-8.006 17.88-17.882 17.88-1.276 0-2.522-.137-3.722-.39 3.02 5.604 8.94 9.413 15.75 9.413 9.877 0 17.883-8.006 17.883-17.882 0-8.599-6.072-15.777-14.16-17.49z"/></g><g><path fill="#d32f2f" d="M243.491 103.944a17.804 17.804 0 0 1 2.132 8.469c0 9.874-8.006 17.88-17.883 17.88-1.276 0-2.519-.137-3.722-.39 3.02 5.604 8.941 9.413 15.754 9.413 9.874 0 17.88-8.006 17.88-17.882 0-8.598-6.07-15.777-14.16-17.49z"/></g></g></g></svg>